<?xml version="1.0" standalone="no"?>
<!DOCTYPE svg PUBLIC "-//W3C//DTD SVG 20010904//EN"
 "http://www.w3.org/TR/2001/REC-SVG-20010904/DTD/svg10.dtd">
<svg version="1.0" xmlns="http://www.w3.org/2000/svg"
 width="138.000000pt" height="138.000000pt" viewBox="0 0 138.000000 138.000000"
 preserveAspectRatio="xMidYMid meet">
<metadata>
Created by potrace 1.14, written by Peter Selinger 2001-2017
</metadata>
<g transform="translate(0.000000,138.000000) scale(0.100000,-0.100000)"
fill="#000000" stroke="none">
<path d="M480 1370 c0 -5 -6 -10 -14 -10 -8 0 -16 -4 -18 -8 -7 -17 -78 -53
-90 -46 -7 4 -10 4 -6 -1 4 -4 3 -14 -3 -22 -14 -16 -33 -18 -23 -1 4 7 3 8
-5 4 -6 -4 -9 -12 -6 -17 4 -5 -2 -13 -12 -17 -24 -10 -106 -64 -115 -77 -9
-12 -11 -265 -2 -265 3 0 20 11 36 26 18 15 37 23 47 19 8 -3 12 -3 9 1 -11
10 40 46 53 38 8 -4 9 -3 5 4 -4 6 4 16 16 23 13 7 50 30 82 51 42 28 61 36
66 27 5 -6 7 26 6 72 -2 46 2 92 7 103 6 11 5 16 0 13 -6 -4 -10 11 -10 33 0
26 4 37 11 33 6 -4 5 1 -3 10 -15 19 -31 22 -31 7z"/>
<path d="M675 1371 c-3 -5 -2 -12 3 -15 5 -3 9 1 9 9 0 17 -3 19 -12 6z"/>
<path d="M915 1371 c-3 -5 -2 -12 3 -15 5 -3 9 1 9 9 0 17 -3 19 -12 6z"/>
<path d="M786 1338 c3 -5 10 -6 15 -3 13 9 11 12 -6 12 -8 0 -12 -4 -9 -9z"/>
<path d="M1020 1346 c0 -2 8 -10 18 -17 15 -13 16 -12 3 4 -13 16 -21 21 -21
13z"/>
<path d="M635 1331 c-3 -5 -2 -12 3 -15 5 -3 9 1 9 9 0 17 -3 19 -12 6z"/>
<path d="M267 1319 c7 -7 15 -10 18 -7 3 3 -2 9 -12 12 -14 6 -15 5 -6 -5z"/>
<path d="M716 1318 c3 -5 10 -6 15 -3 13 9 11 12 -6 12 -8 0 -12 -4 -9 -9z"/>
<path d="M1150 1317 c0 -2 6 -10 14 -16 11 -9 16 -9 22 1 4 7 4 10 -1 6 -4 -4
-14 -3 -22 3 -7 6 -13 9 -13 6z"/>
<path d="M654 1298 c-4 -7 -4 -10 1 -6 4 4 15 2 24 -5 14 -11 14 -10 2 6 -16
20 -18 21 -27 5z"/>
<path d="M875 1300 c-3 -5 -1 -10 4 -10 6 0 11 5 11 10 0 6 -2 10 -4 10 -3 0
-8 -4 -11 -10z"/>
<path d="M1096 1293 c-6 -14 -5 -15 5 -6 7 7 10 15 7 18 -3 3 -9 -2 -12 -12z"/>
<path d="M940 1285 c0 -2 6 -8 13 -14 10 -8 14 -7 14 2 0 8 -6 14 -14 14 -7 0
-13 -1 -13 -2z"/>
<path d="M650 1261 c0 -6 4 -13 10 -16 6 -3 7 1 4 9 -7 18 -14 21 -14 7z"/>
<path d="M953 1235 c0 -8 4 -12 9 -9 5 3 6 10 3 15 -9 13 -12 11 -12 -6z"/>
<path d="M1070 1237 c0 -2 6 -10 14 -16 11 -9 16 -9 22 1 4 7 4 10 -1 6 -4 -4
-14 -3 -22 3 -7 6 -13 9 -13 6z"/>
<path d="M516 1222 c-3 -5 1 -9 9 -9 8 0 12 4 9 9 -3 4 -7 8 -9 8 -2 0 -6 -4
-9 -8z"/>
<path d="M553 1215 c0 -8 4 -12 9 -9 4 3 8 9 8 15 0 5 -4 9 -8 9 -5 0 -9 -7
-9 -15z"/>
<path d="M796 1213 c-6 -14 -5 -15 5 -6 7 7 10 15 7 18 -3 3 -9 -2 -12 -12z"/>
<path d="M550 1186 c0 -2 7 -7 16 -10 8 -3 12 -2 9 4 -6 10 -25 14 -25 6z"/>
<path d="M970 1181 c0 -6 4 -13 10 -16 6 -3 7 1 4 9 -7 18 -14 21 -14 7z"/>
<path d="M760 1160 c-9 -6 -10 -10 -3 -10 6 0 15 5 18 10 8 12 4 12 -15 0z"/>
<path d="M919 1158 c-5 -9 -5 -48 -1 -43 6 6 11 45 5 45 -2 0 -4 -1 -4 -2z"/>
<path d="M810 1141 c0 -6 4 -13 10 -16 6 -3 7 1 4 9 -7 18 -14 21 -14 7z"/>
<path d="M1106 1122 c-3 -5 1 -9 9 -9 8 0 12 4 9 9 -3 4 -7 8 -9 8 -2 0 -6 -4
-9 -8z"/>
<path d="M960 1100 c-9 -6 -10 -10 -3 -10 6 0 15 5 18 10 8 12 4 12 -15 0z"/>
<path d="M446 1062 c-3 -5 1 -9 9 -9 8 0 12 4 9 9 -3 4 -7 8 -9 8 -2 0 -6 -4
-9 -8z"/>
<path d="M355 1011 c-3 -5 -2 -12 3 -15 5 -3 9 1 9 9 0 17 -3 19 -12 6z"/>
<path d="M513 989 c-2 -23 3 -25 10 -4 4 8 3 16 -1 19 -4 3 -9 -4 -9 -15z"/>
<path d="M634 989 c-3 -6 -2 -15 3 -20 5 -5 9 -1 9 11 0 23 -2 24 -12 9z"/>
<path d="M895 991 c-3 -5 -2 -12 3 -15 5 -3 9 1 9 9 0 17 -3 19 -12 6z"/>
<path d="M1055 981 c-3 -5 -2 -12 3 -15 5 -3 9 1 9 9 0 17 -3 19 -12 6z"/>
<path d="M1096 978 c3 -4 11 -5 19 -1 21 7 19 12 -4 10 -11 0 -18 -5 -15 -9z"/>
<path d="M665 960 c-3 -6 1 -7 9 -4 18 7 21 14 7 14 -6 0 -13 -4 -16 -10z"/>
<path d="M295 940 c3 -5 8 -10 11 -10 2 0 4 5 4 10 0 6 -5 10 -11 10 -5 0 -7
-4 -4 -10z"/>
<path d="M536 942 c-3 -5 1 -9 9 -9 8 0 12 4 9 9 -3 4 -7 8 -9 8 -2 0 -6 -4
-9 -8z"/>
<path d="M869 937 c6 -8 7 -18 3 -22 -4 -5 -1 -5 6 -1 10 6 10 11 1 22 -6 8
-14 14 -16 14 -3 0 0 -6 6 -13z"/>
<path d="M936 938 c3 -4 11 -5 19 -1 21 7 19 12 -4 10 -11 0 -18 -5 -15 -9z"/>
<path d="M400 920 c-9 -6 -10 -10 -3 -10 6 0 15 5 18 10 8 12 4 12 -15 0z"/>
<path d="M827 919 c7 -7 15 -10 18 -7 3 3 -2 9 -12 12 -14 6 -15 5 -6 -5z"/>
<path d="M1075 909 c-4 -6 -5 -12 -2 -15 2 -3 7 2 10 11 7 17 1 20 -8 4z"/>
<path d="M1149 903 c-13 -16 -12 -17 4 -4 9 7 17 15 17 17 0 8 -8 3 -21 -13z"/>
<path d="M1040 900 c-9 -6 -10 -10 -3 -10 6 0 15 5 18 10 8 12 4 12 -15 0z"/>
<path d="M189 886 c-5 -6 -9 -55 -9 -111 0 -91 2 -101 21 -113 12 -8 18 -9 14
-3 -3 6 -2 11 4 11 5 0 13 -5 16 -10 5 -8 11 -8 20 0 10 8 14 4 17 -15 3 -14
2 -25 -2 -25 -3 0 -4 -22 0 -50 4 -27 4 -50 0 -50 -3 0 -3 -27 0 -60 3 -34 4
-63 1 -65 -2 -3 -3 -42 -2 -88 l2 -84 -43 1 -43 1 0 -82 c0 -77 2 -85 28 -110
l27 -28 163 -2 c89 -1 155 0 147 4 -33 12 -90 56 -90 69 0 8 -4 14 -10 14 -31
0 -36 171 -6 227 25 50 95 101 118 87 7 -5 8 -3 4 5 -5 8 -3 11 5 10 8 -1 21
0 29 4 56 21 80 26 73 14 -4 -7 -1 -7 10 2 9 7 24 11 32 7 9 -3 14 -2 11 3 -9
14 37 22 47 8 6 -9 7 -8 4 3 -2 8 2 20 9 27 8 9 9 24 4 50 -5 20 -6 41 -3 46
3 6 1 7 -5 3 -6 -3 -16 0 -24 7 -7 7 -21 13 -30 13 -45 3 -49 5 -43 17 4 6 1
5 -7 -3 -7 -8 -20 -16 -28 -18 -27 -6 -60 -32 -60 -47 0 -8 -5 -15 -11 -15 -5
0 -7 -5 -4 -11 5 -7 -5 -8 -32 -4 -57 10 -65 14 -57 27 6 10 4 11 -7 1 -24
-23 -38 -15 -34 19 3 17 9 35 16 38 6 4 11 11 11 16 0 5 4 8 9 7 4 -2 5 5 2
14 -5 13 -2 15 13 9 15 -5 16 -4 7 5 -9 9 -8 15 5 28 23 24 90 53 102 46 6 -3
10 -1 10 6 0 7 7 4 15 -7 13 -16 14 -16 9 -1 -5 13 -1 17 16 17 11 0 19 -4 15
-9 -3 -5 -1 -13 5 -16 6 -4 9 -1 8 7 -5 21 99 15 153 -10 48 -22 85 -64 73
-84 -4 -7 -3 -8 4 -4 16 10 15 -7 0 -23 -11 -10 -10 -11 2 -6 12 4 16 -2 18
-27 1 -18 5 -41 8 -50 3 -10 0 -18 -6 -18 -7 0 -8 -5 -3 -12 4 -7 8 -69 8
-138 0 -95 3 -124 13 -123 6 2 18 4 25 5 6 2 35 17 64 35 35 22 53 28 57 20 3
-7 3 -2 0 11 -3 12 -1 22 4 22 12 0 70 89 79 121 13 46 11 172 -2 210 -8 22
-11 39 -8 39 4 0 -1 6 -10 13 -9 6 -17 18 -19 26 -4 18 -83 89 -115 104 -13 5
-23 14 -23 19 0 4 -3 7 -7 7 -21 -3 -44 2 -39 9 9 14 -760 22 -775 8z"/>
<path d="M1150 837 c0 -2 6 -10 14 -16 11 -9 16 -9 22 1 4 7 4 10 -1 6 -4 -4
-14 -3 -22 3 -7 6 -13 9 -13 6z"/>
<path d="M745 720 c-3 -6 1 -7 9 -4 18 7 21 14 7 14 -6 0 -13 -4 -16 -10z"/>
<path d="M796 682 c-2 -4 -1 -14 4 -22 7 -11 9 -9 7 8 -1 24 -3 26 -11 14z"/>
<path d="M679 653 c-12 -16 -12 -17 2 -6 9 7 20 9 24 5 5 -4 5 -1 1 6 -9 16
-11 15 -27 -5z"/>
<path d="M830 661 c0 -6 4 -13 10 -16 6 -3 7 1 4 9 -7 18 -14 21 -14 7z"/>
<path d="M513 585 c0 -8 4 -12 9 -9 5 3 6 10 3 15 -9 13 -12 11 -12 -6z"/>
<path d="M850 581 c0 -6 4 -13 10 -16 6 -3 7 1 4 9 -7 18 -14 21 -14 7z"/>
<path d="M884 582 c4 -3 14 -7 22 -8 9 -1 13 0 10 4 -4 3 -14 7 -22 8 -9 1
-13 0 -10 -4z"/>
<path d="M235 571 c-3 -5 -2 -12 3 -15 5 -3 9 1 9 9 0 17 -3 19 -12 6z"/>
<path d="M239 448 c-5 -18 -6 -38 -1 -34 7 8 12 36 6 36 -2 0 -4 -1 -5 -2z"/>
<path d="M793 425 c0 -8 4 -12 9 -9 5 3 6 10 3 15 -9 13 -12 11 -12 -6z"/>
<path d="M640 420 c-9 -6 -10 -10 -3 -10 6 0 15 5 18 10 8 12 4 12 -15 0z"/>
<path d="M759 413 c-13 -16 -12 -17 4 -4 16 13 21 21 13 21 -2 0 -10 -8 -17
-17z"/>
<path d="M189 383 c-13 -16 -12 -17 4 -4 16 13 21 21 13 21 -2 0 -10 -8 -17
-17z"/>
<path d="M915 391 c-3 -5 -2 -12 3 -15 5 -3 9 1 9 9 0 17 -3 19 -12 6z"/>
<path d="M226 362 c-3 -5 1 -9 9 -9 8 0 12 4 9 9 -3 4 -7 8 -9 8 -2 0 -6 -4
-9 -8z"/>
<path d="M507 359 c7 -7 15 -10 18 -7 3 3 -2 9 -12 12 -14 6 -15 5 -6 -5z"/>
<path d="M600 360 c-9 -6 -10 -10 -3 -10 6 0 15 5 18 10 8 12 4 12 -15 0z"/>
<path d="M755 351 c-11 -5 -23 -7 -27 -4 -5 2 -8 -1 -8 -8 0 -8 -3 -9 -14 0
-10 9 -16 7 -26 -5 -8 -8 -22 -13 -32 -11 -10 3 -16 1 -12 -4 4 -8 -17 -14
-39 -10 -4 0 -6 -2 -5 -6 1 -5 -4 -21 -11 -38 -13 -32 -1 -96 22 -119 24 -23
90 -19 129 8 20 13 40 21 44 18 4 -4 4 1 1 11 -4 9 -2 17 3 17 6 0 9 3 9 8 -4
27 3 72 10 67 5 -3 13 -1 16 5 4 6 1 9 -6 8 -6 -2 -14 3 -16 10 -3 6 1 12 9
12 10 0 9 3 -2 10 -12 8 -13 12 -2 19 11 6 10 10 -3 15 -9 3 -17 6 -18 5 -1 0
-11 -4 -22 -8z"/>
<path d="M536 307 c3 -10 9 -15 12 -12 3 3 0 11 -7 18 -10 9 -11 8 -5 -6z"/>
<path d="M1149 263 c-13 -16 -12 -17 4 -4 9 7 17 15 17 17 0 8 -8 3 -21 -13z"/>
<path d="M466 259 c2 -4 13 -7 24 -6 23 2 17 10 -10 12 -10 1 -17 -2 -14 -6z"/>
<path d="M895 229 c-4 -6 -5 -12 -2 -15 2 -3 7 2 10 11 7 17 1 20 -8 4z"/>
<path d="M519 208 c-5 -15 -4 -50 1 -53 3 -2 6 9 6 26 0 24 -3 37 -7 27z"/>
<path d="M1150 197 c0 -2 6 -10 14 -16 11 -9 16 -9 22 1 4 7 4 10 -1 6 -4 -4
-14 -3 -22 3 -7 6 -13 9 -13 6z"/>
<path d="M550 180 c0 -5 5 -10 11 -10 5 0 7 5 4 10 -3 6 -8 10 -11 10 -2 0 -4
-4 -4 -10z"/>
<path d="M960 140 c-9 -6 -10 -10 -3 -10 6 0 15 5 18 10 8 12 4 12 -15 0z"/>
<path d="M1005 131 c-42 -13 -57 -28 -59 -62 -2 -45 31 -74 77 -65 18 4 37 7
44 8 7 1 10 5 7 9 -2 4 0 18 4 31 9 24 -8 84 -21 72 -4 -4 -12 -2 -19 3 -7 5
-22 7 -33 4z m50 -32 c25 -27 10 -70 -29 -84 -25 -8 -31 -6 -52 18 -24 28 -23
52 1 72 22 18 62 15 80 -6z"/>
<path d="M980 95 c-5 -7 -6 -15 -2 -19 7 -8 8 -13 11 -42 0 -8 5 -13 11 -9 5
3 7 12 3 20 -3 8 0 15 6 15 6 0 11 -7 11 -15 0 -8 7 -15 15 -15 8 0 15 5 15
10 0 6 -6 10 -12 10 -9 0 -9 3 -3 8 12 8 13 27 2 38 -12 12 -46 12 -57 -1z
m50 -13 c0 -5 -7 -9 -15 -9 -8 0 -15 4 -15 9 0 4 7 8 15 8 8 0 15 -4 15 -8z"/>
<path d="M576 107 c3 -10 9 -15 12 -12 3 3 0 11 -7 18 -10 9 -11 8 -5 -6z"/>
<path d="M615 109 c-4 -6 -5 -12 -2 -15 2 -3 7 2 10 11 7 17 1 20 -8 4z"/>
<path d="M915 111 c-3 -5 -2 -12 3 -15 5 -3 9 1 9 9 0 17 -3 19 -12 6z"/>
<path d="M1155 109 c-4 -6 -5 -12 -2 -15 2 -3 7 2 10 11 7 17 1 20 -8 4z"/>
<path d="M753 95 c0 -8 4 -12 9 -9 5 3 6 10 3 15 -9 13 -12 11 -12 -6z"/>
<path d="M869 57 c6 -8 7 -18 3 -22 -4 -5 -1 -5 6 -1 10 6 10 11 1 22 -6 8
-14 14 -16 14 -3 0 0 -6 6 -13z"/>
<path d="M715 51 c-3 -5 -2 -12 3 -15 5 -3 9 1 9 9 0 17 -3 19 -12 6z"/>
<path d="M796 38 c3 -5 10 -6 15 -3 13 9 11 12 -6 12 -8 0 -12 -4 -9 -9z"/>
<path d="M573 13 c0 -9 4 -10 14 -2 7 6 13 12 13 14 0 1 -6 2 -13 2 -8 0 -14
-6 -14 -14z"/>
</g>
</svg>
