<svg viewBox="0 0 9 7" fill="none" xmlns="http://www.w3.org/2000/svg">
<path fill-rule="evenodd" clip-rule="evenodd" d="M0.809287 0.672051C0.592305 0.501249 0.277943 0.538685 0.107141 0.755667C-0.0636618 0.972648 -0.0262263 1.28701 0.190755 1.45781L2.78508 3.5L0.190755 5.54218C-0.0262263 5.71299 -0.0636618 6.02734 0.107141 6.24433C0.277943 6.46131 0.592305 6.49875 0.809287 6.32794L3.90271 3.89288C4.02314 3.79807 4.09344 3.65327 4.09344 3.5C4.09344 3.34672 4.02314 3.20192 3.90271 3.10712L0.809287 0.672051ZM5.14012 0.672051C4.92314 0.501249 4.60878 0.538685 4.43797 0.755666C4.26717 0.972648 4.30461 1.28701 4.52159 1.45781L7.11591 3.5L4.52159 5.54218C4.30461 5.71299 4.26717 6.02734 4.43797 6.24433C4.60878 6.46131 4.92314 6.49875 5.14012 6.32794L8.23354 3.89288C8.35398 3.79807 8.42428 3.65327 8.42428 3.5C8.42428 3.34672 8.35398 3.20192 8.23354 3.10712L5.14012 0.672051Z" fill="#2D3440"/>
</svg>
