<svg width="60" height="48" viewBox="0 0 60 48" fill="none" xmlns="http://www.w3.org/2000/svg">
<path id="Vector" d="M50.4167 0.666626H9.58337C7.26273 0.666626 5.03713 1.5885 3.39619 3.22944C1.75525 4.87039 0.833374 7.09598 0.833374 9.41663V38.5833C0.833374 40.9039 1.75525 43.1295 3.39619 44.7705C5.03713 46.4114 7.26273 47.3333 9.58337 47.3333H50.4167C52.7374 47.3333 54.963 46.4114 56.6039 44.7705C58.2448 43.1295 59.1667 40.9039 59.1667 38.5833V9.41663C59.1667 7.09598 58.2448 4.87039 56.6039 3.22944C54.963 1.5885 52.7374 0.666626 50.4167 0.666626ZM9.58337 6.49996H50.4167C51.1903 6.49996 51.9321 6.80725 52.4791 7.35423C53.0261 7.90121 53.3334 8.64308 53.3334 9.41663L30 23.65L6.66671 9.41663C6.66671 8.64308 6.974 7.90121 7.52098 7.35423C8.06796 6.80725 8.80983 6.49996 9.58337 6.49996ZM53.3334 38.5833C53.3334 39.3568 53.0261 40.0987 52.4791 40.6457C51.9321 41.1927 51.1903 41.5 50.4167 41.5H9.58337C8.80983 41.5 8.06796 41.1927 7.52098 40.6457C6.974 40.0987 6.66671 39.3568 6.66671 38.5833V16.0666L28.4834 29.3958C28.9268 29.6518 29.4297 29.7866 29.9417 29.7866C30.4537 29.7866 30.9567 29.6518 31.4 29.3958L53.3334 16.0666V38.5833Z" fill="black"/>
</svg>
