<svg width="30" height="30" viewBox="0 0 30 30" fill="none" xmlns="http://www.w3.org/2000/svg">
<path fill-rule="evenodd" clip-rule="evenodd" d="M13.9476 3.64769C12.5984 3.64769 11.2624 3.91344 10.0158 4.42977C8.76931 4.9461 7.6367 5.70289 6.68265 6.65693C5.72861 7.61098 4.97181 8.74359 4.45549 9.99011C3.93916 11.2366 3.67341 12.5726 3.67341 13.9219C3.67341 15.2711 3.93916 16.6071 4.45549 17.8536C4.97181 19.1002 5.72861 20.2328 6.68265 21.1868C7.6367 22.1409 8.76931 22.8977 10.0158 23.414C11.2624 23.9303 12.5984 24.1961 13.9476 24.1961C16.6154 24.1124 19.146 22.9938 21.0035 21.0771C22.8611 19.1604 23.8998 16.5961 23.8998 13.9269C23.8998 11.2578 22.8611 8.69342 21.0035 6.77672C19.146 4.86001 16.6154 3.74143 13.9476 3.65779V3.64769ZM0.736492 13.9421C0.687695 12.1771 0.993184 10.4203 1.63491 8.77537C2.27663 7.13048 3.24156 5.63091 4.47268 4.36528C5.7038 3.09965 7.17613 2.09364 8.80266 1.40671C10.4292 0.71977 12.1769 0.365845 13.9425 0.365845C15.7082 0.365845 17.4559 0.71977 19.0824 1.40671C20.709 2.09364 22.1813 3.09965 23.4124 4.36528C24.6435 5.63091 25.6085 7.13048 26.2502 8.77537C26.8919 10.4203 27.1974 12.1771 27.1486 13.9421C27.0535 17.3813 25.6205 20.6478 23.1542 23.0468C20.688 25.4458 17.3831 26.788 13.9425 26.788C10.502 26.788 7.19712 25.4458 4.73088 23.0468C2.26463 20.6478 0.831579 17.3813 0.736492 13.9421Z" fill="currentColor"/>
<path fill-rule="evenodd" clip-rule="evenodd" d="M21.1536 21.1381C21.428 20.8638 21.8001 20.7098 22.1881 20.7098C22.5761 20.7098 22.9482 20.8638 23.2226 21.1381L29.5809 27.4964C29.8443 27.7729 29.9891 28.1415 29.9845 28.5235C29.9798 28.9054 29.826 29.2703 29.556 29.5404C29.2859 29.8105 28.9209 29.9643 28.539 29.9689C28.1571 29.9736 27.7885 29.8287 27.5119 29.5653L21.1536 23.207C20.8794 22.9326 20.7253 22.5605 20.7253 22.1726C20.7253 21.7846 20.8794 21.4125 21.1536 21.1381Z" fill="currentColor"/>
</svg>
