<svg xmlns="http://www.w3.org/2000/svg" xmlns:xlink="http://www.w3.org/1999/xlink"><symbol id="arrow" viewBox="0 0 9 16"><g fill="currentColor">
<path d="M8.707 8.707a1 1 0 0 0 0-1.414L2.343.929A1 1 0 0 0 .93 2.343L6.586 8 .929 13.657a1 1 0 1 0 1.414 1.414l6.364-6.364ZM7 9h1V7H7v2Z"/></g></symbol><symbol id="bc-arrow" viewBox="0 0 9 7"><g fill="none">
<path fill-rule="evenodd" clip-rule="evenodd" d="M0.809287 0.672051C0.592305 0.501249 0.277943 0.538685 0.107141 0.755667C-0.0636618 0.972648 -0.0262263 1.28701 0.190755 1.45781L2.78508 3.5L0.190755 5.54218C-0.0262263 5.71299 -0.0636618 6.02734 0.107141 6.24433C0.277943 6.46131 0.592305 6.49875 0.809287 6.32794L3.90271 3.89288C4.02314 3.79807 4.09344 3.65327 4.09344 3.5C4.09344 3.34672 4.02314 3.20192 3.90271 3.10712L0.809287 0.672051ZM5.14012 0.672051C4.92314 0.501249 4.60878 0.538685 4.43797 0.755666C4.26717 0.972648 4.30461 1.28701 4.52159 1.45781L7.11591 3.5L4.52159 5.54218C4.30461 5.71299 4.26717 6.02734 4.43797 6.24433C4.60878 6.46131 4.92314 6.49875 5.14012 6.32794L8.23354 3.89288C8.35398 3.79807 8.42428 3.65327 8.42428 3.5C8.42428 3.34672 8.35398 3.20192 8.23354 3.10712L5.14012 0.672051Z" fill="#2D3440"/>
</g></symbol><symbol id="calendar-clock" viewBox="0 0 24 24"><path d="M17,10.039c-3.859,0-7,3.14-7,7,0,3.838,3.141,6.961,7,6.961s7-3.14,7-7c0-3.838-3.141-6.961-7-6.961Zm0,11.961c-2.757,0-5-2.226-5-4.961,0-2.757,2.243-5,5-5s5,2.226,5,4.961c0,2.757-2.243,5-5,5Zm1.707-4.707c.391,.391,.391,1.023,0,1.414-.195,.195-.451,.293-.707,.293s-.512-.098-.707-.293l-1-1c-.188-.188-.293-.442-.293-.707v-2c0-.552,.447-1,1-1s1,.448,1,1v1.586l.707,.707Zm5.293-10.293v2c0,.552-.447,1-1,1s-1-.448-1-1v-2c0-1.654-1.346-3-3-3H5c-1.654,0-3,1.346-3,3v1H11c.552,0,1,.448,1,1s-.448,1-1,1H2v9c0,1.654,1.346,3,3,3h4c.552,0,1,.448,1,1s-.448,1-1,1H5c-2.757,0-5-2.243-5-5V7C0,4.243,2.243,2,5,2h1V1c0-.552,.448-1,1-1s1,.448,1,1v1h8V1c0-.552,.447-1,1-1s1,.448,1,1v1h1c2.757,0,5,2.243,5,5Z"/></symbol><symbol id="card-title-icon" viewBox="0 0 24 36"><g fill="none">
<path d="M0 15.5724L24 0V20.25L0 36V15.5724Z" fill="#F4B070"/>
</g></symbol><symbol id="diploma" viewBox="0 0 24 24"><path d="m11 12a1 1 0 0 1 0 2h-3a1 1 0 0 1 0-2zm6-3a1 1 0 0 0 -1-1h-8a1 1 0 0 0 0 2h8a1 1 0 0 0 1-1zm-9-3h8a1 1 0 0 0 0-2h-8a1 1 0 0 0 0 2zm12 13.444v3.833a.721.721 0 0 1 -1.231.51l-.769-.768-.769.768a.721.721 0 0 1 -1.231-.51v-3.833a3.987 3.987 0 0 1 2-7.444 3.939 3.939 0 0 1 1 .142v-7.142a3 3 0 0 0 -3-3h-8a3 3 0 0 0 -3 3v12a3 3 0 0 0 3 3h5a1 1 0 0 1 0 2h-5a5.006 5.006 0 0 1 -5-5v-12a5.006 5.006 0 0 1 5-5h8a5.006 5.006 0 0 1 5 5v8.382a3.95 3.95 0 0 1 -1 6.062zm0-3.444a2 2 0 1 0 -2 2 2 2 0 0 0 2-2z"/></symbol><symbol id="document" viewBox="0 0 24 24"><path d="m7 12h10v2h-10zm0 6h7v-2h-7zm15-10.414v16.414h-20v-21a3 3 0 0 1 3-3h9.414zm-7-.586h3.586l-3.586-3.586zm5 15v-13h-7v-7h-8a1 1 0 0 0 -1 1v19z"/></symbol><symbol id="envelope" viewBox="0 0 60 48"><g fill="none">
<path id="Vector" d="M50.4167 0.666626H9.58337C7.26273 0.666626 5.03713 1.5885 3.39619 3.22944C1.75525 4.87039 0.833374 7.09598 0.833374 9.41663V38.5833C0.833374 40.9039 1.75525 43.1295 3.39619 44.7705C5.03713 46.4114 7.26273 47.3333 9.58337 47.3333H50.4167C52.7374 47.3333 54.963 46.4114 56.6039 44.7705C58.2448 43.1295 59.1667 40.9039 59.1667 38.5833V9.41663C59.1667 7.09598 58.2448 4.87039 56.6039 3.22944C54.963 1.5885 52.7374 0.666626 50.4167 0.666626ZM9.58337 6.49996H50.4167C51.1903 6.49996 51.9321 6.80725 52.4791 7.35423C53.0261 7.90121 53.3334 8.64308 53.3334 9.41663L30 23.65L6.66671 9.41663C6.66671 8.64308 6.974 7.90121 7.52098 7.35423C8.06796 6.80725 8.80983 6.49996 9.58337 6.49996ZM53.3334 38.5833C53.3334 39.3568 53.0261 40.0987 52.4791 40.6457C51.9321 41.1927 51.1903 41.5 50.4167 41.5H9.58337C8.80983 41.5 8.06796 41.1927 7.52098 40.6457C6.974 40.0987 6.66671 39.3568 6.66671 38.5833V16.0666L28.4834 29.3958C28.9268 29.6518 29.4297 29.7866 29.9417 29.7866C30.4537 29.7866 30.9567 29.6518 31.4 29.3958L53.3334 16.0666V38.5833Z" fill="black"/>
</g></symbol><symbol id="flask" viewBox="0 0 24 24">
  <path d="m17,9.04V2h2V0H5v2h2v7.04c-1.497,1.311-7,6.427-7,10.817,0,3.035,2.927,4.102,3.044,4.143h17.912c.117-.042,3.044-1.108,3.044-4.143,0-4.39-5.503-9.506-7-10.817Zm3.585,12.96H3.415c-.396-.186-1.415-.796-1.415-2.143,0-.9.347-1.899.89-2.908h15.768c-.434-.656-.958-1.337-1.524-2H4.188c1.513-2.019,3.43-3.833,4.45-4.679l.362-.3V2h6v7.97l.362.3c1.846,1.529,6.638,6.232,6.638,9.587,0,1.347-1.019,1.957-1.415,2.143Z"/>
</symbol><symbol id="forklift" viewBox="0 0 24 24">
  <path d="m21,18V3.5h-2v9.5h-3.093l-2.105-10.589c-.279-1.397-1.517-2.411-2.942-2.411H3C1.346,0,0,1.346,0,3v17.5c0,1.93,1.57,3.5,3.5,3.5s3.5-1.57,3.5-3.5v-.5h3v.5c0,1.93,1.57,3.5,3.5,3.5s3.5-1.57,3.5-3.5v-2l-.696-3.5h2.696v5h5v-2h-3ZM3,2h7.86c.475,0,.888.338.981.804l2.039,10.196h-4.123l-.228-.812c-.362-1.288-1.55-2.188-2.889-2.188H2V3c0-.552.449-1,1-1Zm2,18.5c0,.827-.673,1.5-1.5,1.5s-1.5-.673-1.5-1.5v-.5h3v.5Zm10,0c0,.827-.673,1.5-1.5,1.5s-1.5-.673-1.5-1.5v-.5h3v.5Zm-.12-2.5H2v-6h4.642c.446,0,.842.3.963.729l.638,2.271h6.038l.6,3Z"/>
</symbol><symbol id="globe" viewBox="0 0 24 24"><path d="M12,0A12,12,0,1,0,24,12,12.013,12.013,0,0,0,12,0Zm8.647,7H17.426a19.676,19.676,0,0,0-2.821-4.644A10.031,10.031,0,0,1,20.647,7ZM16.5,12a10.211,10.211,0,0,1-.476,3H7.976A10.211,10.211,0,0,1,7.5,12a10.211,10.211,0,0,1,.476-3h8.048A10.211,10.211,0,0,1,16.5,12ZM8.778,17h6.444A19.614,19.614,0,0,1,12,21.588,19.57,19.57,0,0,1,8.778,17Zm0-10A19.614,19.614,0,0,1,12,2.412,19.57,19.57,0,0,1,15.222,7ZM9.4,2.356A19.676,19.676,0,0,0,6.574,7H3.353A10.031,10.031,0,0,1,9.4,2.356ZM2.461,9H5.9a12.016,12.016,0,0,0-.4,3,12.016,12.016,0,0,0,.4,3H2.461a9.992,9.992,0,0,1,0-6Zm.892,8H6.574A19.676,19.676,0,0,0,9.4,21.644,10.031,10.031,0,0,1,3.353,17Zm11.252,4.644A19.676,19.676,0,0,0,17.426,17h3.221A10.031,10.031,0,0,1,14.605,21.644ZM21.539,15H18.1a12.016,12.016,0,0,0,.4-3,12.016,12.016,0,0,0-.4-3h3.437a9.992,9.992,0,0,1,0,6Z"/></symbol><symbol id="handshake-angle" viewBox="0 0 24 24"><path d="M23.93,9.59l-1.38-1.45-1.96,1.86h-7.6v-2h-2v5c0,.55-.45,1-1,1s-1-.45-1-1V7.1c0-1.37,.93-2.56,2.25-2.9l5.01-1.29,1.45-1.45L16.29,.04l-1.06,1.06-4.48,1.16c-2.18,.56-3.71,2.5-3.75,4.74-2.24,.04-4.18,1.57-4.74,3.75l-1.16,4.48L.04,16.29l1.41,1.41,1.45-1.45,1.29-5.01c.33-1.29,1.48-2.2,2.81-2.25v4c0,1.65,1.35,3,3,3s3-1.35,3-3v-1h6.42l-1.64,5.83c-.36,1.28-1.54,2.18-2.87,2.19l-5.33,.03-2.51,2.55,1.43,1.4,1.93-1.96,4.5-.02c2.22-.01,4.19-1.51,4.79-3.65l1.83-6.5,2.4-2.27Z"/></symbol><symbol id="handshake" viewBox="0 0 24 24"><path d="M23,15h-.667c-.25,0-.498,.019-.745,.057l-7.046-5.284,1.688-1.616c.399-.382,.413-1.016,.031-1.414-.383-.399-1.017-.412-1.414-.031l-4.173,3.995c-.208,.208-.491,.315-.788,.29-.298-.024-.56-.175-.739-.425-.274-.38-.19-.975,.168-1.334l4.703-4.429c.891-.837,2.284-1.042,3.374-.495l2.316,1.158c.69,.345,1.464,.527,2.235,.527h1.056c.553,0,1-.447,1-1s-.447-1-1-1h-1.056c-.463,0-.928-.109-1.342-.316l-2.314-1.158c-1.824-.913-4.153-.574-5.641,.828l-.618,.582-.7-.638c-.919-.837-2.109-1.298-3.39-1.298-.771,0-1.54,.182-2.227,.525l-2.314,1.158c-.415,.207-.88,.316-1.343,.316H1c-.553,0-1,.447-1,1s.447,1,1,1h1.056c.771,0,1.545-.183,2.236-.527l2.316-1.158c1.022-.514,2.458-.375,3.374,.462l.587,.535-2.646,2.492c-1.073,1.072-1.244,2.767-.398,3.938,.52,.723,1.553,1.259,2.444,1.259,.793,0,1.554-.312,2.104-.863l1.006-.963,6.346,4.759c-.031,.022-6.198,4.646-6.198,4.646-.723,.562-1.732,.562-2.47-.011l-6.091-4.568c-.859-.645-1.925-1-3-1h-.667c-.553,0-1,.447-1,1s.447,1,1,1h.667c.645,0,1.284,.213,1.8,.6l6.077,4.558c.725,.564,1.594,.846,2.461,.846,.862,0,1.723-.279,2.437-.835l6.093-4.568c.515-.387,1.154-.6,1.799-.6h.667c.553,0,1-.447,1-1s-.447-1-1-1Z"/></symbol><symbol id="icon-burger" viewBox="0 0 22 12"><g fill="none">
<rect width="22" height="2" rx="1" fill="#171716"/>
<rect y="5" width="22" height="2" rx="1" fill="#171716"/>
<rect x="10" y="10" width="12" height="2" rx="1" fill="#171716"/>
</g></symbol><symbol id="icon-checkbox" viewBox="0 0 10 8"><g fill="none" stroke="currentColor">
<path d="M1 3.5L3.94737 7L9 1" stroke-linecap="round" stroke-linejoin="round"/>
</g></symbol><symbol id="icon-close" viewBox="0 0 24 24"><g fill="none">
<path fill-rule="evenodd" clip-rule="evenodd" d="M18.7071 5.29289C19.0976 5.68342 19.0976 6.31658 18.7071 6.70711L6.70711 18.7071C6.31658 19.0976 5.68342 19.0976 5.29289 18.7071C4.90237 18.3166 4.90237 17.6834 5.29289 17.2929L17.2929 5.29289C17.6834 4.90237 18.3166 4.90237 18.7071 5.29289Z" fill="currentColor"/>
<path fill-rule="evenodd" clip-rule="evenodd" d="M5.29289 5.29289C5.68342 4.90237 6.31658 4.90237 6.70711 5.29289L18.7071 17.2929C19.0976 17.6834 19.0976 18.3166 18.7071 18.7071C18.3166 19.0976 17.6834 19.0976 17.2929 18.7071L5.29289 6.70711C4.90237 6.31658 4.90237 5.68342 5.29289 5.29289Z" fill="currentColor"/>
</g></symbol><symbol id="icon-star" viewBox="0 0 16 16">
<path d="M8.11176 0L10.2125 5.67707L15.8895 7.77778L10.2125 9.87848L8.11176 15.5556L6.01106 9.87848L0.333984 7.77778L6.01106 5.67707L8.11176 0Z"/>
</symbol><symbol id="polygon" viewBox="0 0 13 10"><g fill="currentColor">
<path d="M6.5 10L0.870834 0.25L12.1292 0.25L6.5 10Z"/>
</g></symbol><symbol id="profies" viewBox="0 0 24 24"><path d="M6.349,11H3a1,1,0,0,0-1,1v3H0V12A3,3,0,0,1,3,9H7.537A5.977,5.977,0,0,0,6.349,11ZM21,9H16.463a5.977,5.977,0,0,1,1.188,2H21a1,1,0,0,1,1,1v3h2V12A3,3,0,0,0,21,9Zm-5,4a4,4,0,1,0-4,4A4,4,0,0,0,16,13Zm-2,0a2,2,0,1,1-2-2A2,2,0,0,1,14,13Zm4,8a3,3,0,0,0-3-3H9a3,3,0,0,0-3,3v3H8V21a1,1,0,0,1,1-1h6a1,1,0,0,1,1,1v3h2ZM22,4a4,4,0,1,0-4,4A4,4,0,0,0,22,4ZM20,4a2,2,0,1,1-2-2A2,2,0,0,1,20,4ZM10,4A4,4,0,1,0,6,8,4,4,0,0,0,10,4ZM8,4A2,2,0,1,1,6,2,2,2,0,0,1,8,4Z"/></symbol><symbol id="users-alt" viewBox="0 0 24 24"><path d="M12,16a4,4,0,1,1,4-4A4,4,0,0,1,12,16Zm0-6a2,2,0,1,0,2,2A2,2,0,0,0,12,10Zm6,13A6,6,0,0,0,6,23a1,1,0,0,0,2,0,4,4,0,0,1,8,0,1,1,0,0,0,2,0ZM18,8a4,4,0,1,1,4-4A4,4,0,0,1,18,8Zm0-6a2,2,0,1,0,2,2A2,2,0,0,0,18,2Zm6,13a6.006,6.006,0,0,0-6-6,1,1,0,0,0,0,2,4,4,0,0,1,4,4,1,1,0,0,0,2,0ZM6,8a4,4,0,1,1,4-4A4,4,0,0,1,6,8ZM6,2A2,2,0,1,0,8,4,2,2,0,0,0,6,2ZM2,15a4,4,0,0,1,4-4A1,1,0,0,0,6,9a6.006,6.006,0,0,0-6,6,1,1,0,0,0,2,0Z"/></symbol></svg>