<svg xmlns="http://www.w3.org/2000/svg" data-name="Layer 1" viewBox="0 0 24 24" width="512" height="512"><path d="m23.93 9.59-1.38-1.45L20.59 10h-7.6V8h-2v5c0 .55-.45 1-1 1s-1-.45-1-1V7.1c0-1.37.93-2.56 2.25-2.9l5.01-1.29 1.45-1.45L16.29.04 15.23 1.1l-4.48 1.16C8.57 2.82 7.04 4.76 7 7a4.986 4.986 0 0 0-4.74 3.75L1.1 15.23.04 16.29l1.41 1.41 1.45-1.45 1.29-5.01A3.01 3.01 0 0 1 7 8.99v4c0 1.65 1.35 3 3 3s3-1.35 3-3v-1h6.42l-1.64 5.83a3.018 3.018 0 0 1-2.87 2.19l-5.33.03-2.51 2.55 1.43 1.4 1.93-1.96 4.5-.02a5.02 5.02 0 0 0 4.79-3.65l1.83-6.5 2.4-2.27Z"/></svg>