<svg xmlns="http://www.w3.org/2000/svg" data-name="Layer 1" viewBox="0 0 24 24" width="512" height="512"><path d="M6.349 11H3a1 1 0 0 0-1 1v3H0v-3a3 3 0 0 1 3-3h4.537a5.977 5.977 0 0 0-1.188 2ZM21 9h-4.537a5.977 5.977 0 0 1 1.188 2H21a1 1 0 0 1 1 1v3h2v-3a3 3 0 0 0-3-3Zm-5 4a4 4 0 1 0-4 4 4 4 0 0 0 4-4Zm-2 0a2 2 0 1 1-2-2 2 2 0 0 1 2 2Zm4 8a3 3 0 0 0-3-3H9a3 3 0 0 0-3 3v3h2v-3a1 1 0 0 1 1-1h6a1 1 0 0 1 1 1v3h2Zm4-17a4 4 0 1 0-4 4 4 4 0 0 0 4-4Zm-2 0a2 2 0 1 1-2-2 2 2 0 0 1 2 2ZM10 4a4 4 0 1 0-4 4 4 4 0 0 0 4-4ZM8 4a2 2 0 1 1-2-2 2 2 0 0 1 2 2Z"/></svg>